<svg id="Layer_1" height="512" viewBox="0 0 512 512" width="512" xmlns="http://www.w3.org/2000/svg" data-name="Layer 1"><circle cx="256" cy="256" fill="#a0eaea" r="148"/><path d="m138 256a148.018 148.018 0 0 1 133-147.248 149.887 149.887 0 0 0 -15-.752 148 148 0 0 0 0 296 149.887 149.887 0 0 0 15-.752 148.018 148.018 0 0 1 -133-147.248z" fill="#8dc6c4"/><path d="m208.15 261.12c.64 19.57 13.03 39.03 30.34 47.2v8.98h-.13l-14.54 3.94v7.7l-10.99 3.97a50.373 50.373 0 0 1 -7.36-30l1.25-18.08v-23.73a5.429 5.429 0 0 0 .57.02z" fill="#4a5160"/><path d="m273.22 339.36 14.69-18.07v7.55 11.33l-16.03 36.35-16.02-15.8z" fill="#4689d3"/><path d="m215.06 360.03v38.05l-.04.15a146.826 146.826 0 0 1 -30.16-12.44v-25.76a27.736 27.736 0 0 1 15.1-22.45 27.736 27.736 0 0 1 15.1 22.45z" fill="#4689d3"/><path d="m500.96 253h-73.68a170.388 170.388 0 0 0 -42.33-109.67l51.31-53.25a243.025 243.025 0 0 1 64.7 162.92z" fill="#4ca987"/><path d="m327.14 385.79.01.01a146.542 146.542 0 0 1 -30.13 12.43l-.04-.15v-38.05a27.749 27.749 0 0 1 15.08-22.44 27.7 27.7 0 0 1 15.08 22.44z" fill="#4689d3"/><path d="m238.5 340.47 17.36 20.25-16.02 15.8-16.02-35.33v-12.25-7.65z" fill="#4689d3"/><path d="m226.65 176.59c3.24 11.35 6.46 20.05 12 26.53l-.01.01c-10.2 4.04-24.86 13.62-31.92 36.06l-1.25-18.1a50.582 50.582 0 0 1 21.08-44.7 1.244 1.244 0 0 1 .1.2z" fill="#4a5160"/><path d="m305.3 261.1v23.66l1.26 18.15a50.445 50.445 0 0 1 -6.98 29.36c-.13.21-.26.43-.39.64l-11.28-4.07v-7.55l-14.54-3.93h-.16v-8.88c17.49-8.08 30.03-27.66 30.67-47.36h.83a5.815 5.815 0 0 0 .59-.02z" fill="#4a5160"/><path d="m273.21 308.48a40.219 40.219 0 0 1 -34.72-.16c-17.31-8.17-29.7-27.63-30.34-47.2h-.86a5.429 5.429 0 0 1 -.57-.02 12.185 12.185 0 0 1 -11.62-12.17 12.39 12.39 0 0 1 .35-2.91 9.265 9.265 0 0 1 10.89-6.79h.38v-.04c7.06-22.44 21.72-32.02 31.92-36.06l.01-.01c7.81 9.17 20.28 13.88 44.05 15.33 0 0 4.63 18.8 22.61 20.71v.01h.35a9.3 9.3 0 0 1 10.89 6.85 12.194 12.194 0 0 1 -11.25 15.08 5.815 5.815 0 0 1 -.59.02h-.83c-.64 19.7-13.18 39.28-30.67 47.36z" fill="#ffd8b7"/><path d="m212.83 332.91 10.99-3.97v12.25l16.02 35.33 16.02-15.8 16.02 15.8 16.03-36.35v-11.33l11.28 4.07 12.7 4.59c.06.03.11.06.17.09a27.749 27.749 0 0 0 -15.08 22.44v38.05l.04.15a148.8 148.8 0 0 1 -82 0l.04-.15v-38.05a27.736 27.736 0 0 0 -15.1-22.45c.05-.03.1-.05.15-.08z" fill="#5fa8ed"/><path d="m273.21 317.36.01 22-17.36 21.36-17.36-20.25-.01-23.17v-8.98a40.219 40.219 0 0 0 34.72.16z" fill="#efc597"/><path d="m422.18 75.99-51.18 53.13a171 171 0 0 0 -204.39-19.21l-40.46-61.76a245.189 245.189 0 0 1 296.03 27.84z" fill="#f3ce7d"/><path d="m426.48 273h73.94a245 245 0 0 1 -417.66 156.25 245.006 245.006 0 0 1 0-346.49 249.464 249.464 0 0 1 26.96-23.35l40.54 61.88a171.117 171.117 0 0 0 -65.58 134.71c0 94.47 76.85 171.36 171.32 171.36 88.75 0 161.96-68.36 170.48-154.36z" fill="#e87187"/><path d="m305.64 207.3a51.067 51.067 0 0 1 .92 13.79l-1.25 18.07c-17.98-1.91-22.61-20.71-22.61-20.71-23.77-1.45-36.24-6.16-44.05-15.33-5.54-6.48-8.76-15.18-12-26.53a1.244 1.244 0 0 0 -.1-.2c0-.01 27.17-17.61 51.15-4.59 6.84 3.71 13.25 8.3 18.08 14.4a50.759 50.759 0 0 1 9.86 21.1z" fill="#6d7486"/><path d="m112.76 429.25a245.006 245.006 0 0 1 0-346.49q3.7-3.7 7.533-7.211l-10.573-16.139a249.464 249.464 0 0 0 -26.96 23.35 245.015 245.015 0 0 0 173.24 418.26c5.027 0 10.028-.169 15-.467a243.227 243.227 0 0 1 -158.24-71.303z" fill="#ad5e73"/><path d="m271.481 11.493c-5.133-.318-10.293-.493-15.481-.493a243.408 243.408 0 0 0 -129.85 37.15l9.788 14.941a243.815 243.815 0 0 1 135.543-51.598z" fill="#b59a6b"/><g fill="#284268"><path d="m231.609 142.269a6.054 6.054 0 0 0 1.2-.121c1.95-.4 3.938-.744 5.909-1.037a6 6 0 0 0 -1.77-11.869c-2.174.324-4.368.709-6.519 1.145a6 6 0 0 0 1.183 11.882z"/><path d="m133.834 262a6 6 0 0 0 6-6 116.048 116.048 0 0 1 70.717-106.94 6 6 0 0 0 -4.7-11.042 128.031 128.031 0 0 0 -78.017 117.982 6 6 0 0 0 6 6z"/><path d="m135.661 171.985a6.011 6.011 0 0 0 -9.3 1 153.161 153.161 0 0 0 -24.279 87.283c2.226 81.683 68.756 147.865 150.45 149.683 86.588 1.926 157.626-68.018 157.49-154.208-.133-83.719-67.992-152.509-151.7-153.736a153.352 153.352 0 0 0 -103.351 37.873 6 6 0 0 0 7.95 8.985 141.394 141.394 0 0 1 95.379-34.856c77.118 1.218 139.515 64.613 139.644 141.741a142.244 142.244 0 0 1 -64.944 119.413l.052-15.63a33.936 33.936 0 0 0 -18.517-27.4l-6.826-2.516a56.272 56.272 0 0 0 4.676-27.117l-1.385-17.942v-18.693a18.026 18.026 0 0 0 11.748-16.94 18.212 18.212 0 0 0 -.445-4.336 15.172 15.172 0 0 0 -10.628-11l.852-12.087a56.36 56.36 0 0 0 -12.05-39.024c-4.793-6.062-11.307-11.281-19.918-15.956-11.206-6.084-24.711-7.152-39.056-3.09a70.128 70.128 0 0 0 -18.435 8.1l-.016-.024a56.354 56.354 0 0 0 -23.565 49.992l.837 12.133a15.144 15.144 0 0 0 -10.7 10.954 18.873 18.873 0 0 0 11.376 21.286v18.749l-1.375 17.878a56.263 56.263 0 0 0 4.755 27.1l-6.933 2.526a33.907 33.907 0 0 0 -18.49 27.4l.043 15.5a141.709 141.709 0 0 1 -42.509-195.562 6 6 0 0 0 -.815-7.482zm120.08 179.375-11.241-13.114-.006-21.395a45.451 45.451 0 0 0 22.717.085l.006 20.3zm26.259-13.169v.714l-12.05 27.238-5.922-5.865zm-34.31 22.189-5.835 5.831-11.855-26.311v-.9l3.827 5.116c.068.087.093.173.165.257zm-15.69-47.38-10.076 2.692a5.764 5.764 0 0 0 -3.924 5.6v3.433l-2.273.789a44.417 44.417 0 0 1 -4.273-22.193l.746-10.81a61.115 61.115 0 0 0 5.768 7.869 59.083 59.083 0 0 0 14.032 11.59zm59.034 46.533-.034 34.1a142.292 142.292 0 0 1 -70-.025l.011-34.074a33.788 33.788 0 0 0 -8.719-20.028l5.708-2.023v3.71a5.919 5.919 0 0 0 .447 2.477l15.976 35.33a5.964 5.964 0 0 0 4.349 3.422 5.837 5.837 0 0 0 1.083.1 5.987 5.987 0 0 0 4.208-1.729l11.8-11.646 11.81 11.653a6 6 0 0 0 9.7-1.852l16.068-36.356a6.051 6.051 0 0 0 .557-2.42v-2.783l5.859 2.132a33.936 33.936 0 0 0 -8.823 20.012zm5.38-34.012-2.414-.893v-3.335a6.042 6.042 0 0 0 -4.04-5.654l-10.96-2.639v-.84a62.777 62.777 0 0 0 14.714-11.779 63.473 63.473 0 0 0 6.059-7.856l.771 10.8a44.363 44.363 0 0 1 -4.13 22.196zm15.586 19.071c5.1 3.639 9 9.393 9 15.7v21.853a170.932 170.932 0 0 1 -18 7.855v-29.7c1-6.316 3.9-12.069 9-15.708zm-37.164-167.523c7.157 3.886 12.467 8.09 16.233 12.853a44.427 44.427 0 0 1 9.506 30.755l-.744 10.783c-8.548-4.169-11.184-13.973-11.306-14.447a6 6 0 0 0 -5.459-4.552c-35.147-2.152-42.441-10.514-49.366-33.174 7.7-3.823 25.514-10.697 41.136-2.218zm-51.256 9.81a76.226 76.226 0 0 0 6.152 13.828 57.344 57.344 0 0 0 -18.361 16 44.279 44.279 0 0 1 12.209-29.828zm-22.48 61.988a5.972 5.972 0 0 1 .177-1.453 3.136 3.136 0 0 1 3.249-2.362 4.312 4.312 0 0 1 .7-.047 5.946 5.946 0 0 0 1.116 0h.386a5.894 5.894 0 0 0 4.387-1.789 5.81 5.81 0 0 0 1.443-2.615c5.524-17.242 15.9-25.936 24.757-30.34 8.463 7.883 20.877 12.244 41.03 13.885 2.778 6.7 10 18.981 25.97 20.852a5.991 5.991 0 0 0 1 .007h.348a5.938 5.938 0 0 0 1.116-.02 3.376 3.376 0 0 1 3.945 2.418 6 6 0 0 1 .177 1.448 6.166 6.166 0 0 1 -6.192 6.149h-.825a6.05 6.05 0 0 0 -6 5.863 50.47 50.47 0 0 1 -12.984 31.466c-8.1 9.014-18.359 13.992-28.878 13.992s-20.775-4.956-28.878-13.97a50.536 50.536 0 0 1 -12.992-31.491 6.047 6.047 0 0 0 -6-5.86h-.859a6.148 6.148 0 0 1 -6.193-6.133zm-10.1 111.433c0-6.32 3.884-12.082 9-15.719 5.114 3.637 8 9.4 9 15.719v29.659a170.286 170.286 0 0 1 -18-7.908z"/><path d="m500.415 267h-73.93a6 6 0 0 0 -5.971 5.408 165.965 165.965 0 0 1 -164.514 148.949c-91.158 0-165.321-74.178-165.321-165.357a164.509 164.509 0 0 1 63.291-129.991 6 6 0 0 0 1.309-8l-40.54-61.88a6 6 0 0 0 -8.611-1.519 255.484 255.484 0 0 0 -27.612 23.908 251.013 251.013 0 1 0 427.884 194.888 6 6 0 0 0 -5.985-6.406zm-75.415 158.036a239.013 239.013 0 0 1 -338-338.036 243.9 243.9 0 0 1 21.245-18.892l34.026 51.937a176.345 176.345 0 0 0 -63.592 135.955c0 97.8 79.546 177.357 177.321 177.357a178.006 178.006 0 0 0 175.834-154.357h62.073a238.536 238.536 0 0 1 -68.907 146.036z"/><path d="m436.321 84.078a5.947 5.947 0 0 0 -4.386 1.837l-51.3 53.255a6 6 0 0 0 -.195 8.113 165.261 165.261 0 0 1 40.843 105.817 6 6 0 0 0 6 5.9h73.681a6 6 0 0 0 6-6.071 250.17 250.17 0 0 0 -66.3-166.92 6 6 0 0 0 -4.343-1.931zm-3.24 162.922a177.312 177.312 0 0 0 -40.043-103.409l43.062-44.706a238.149 238.149 0 0 1 58.715 148.115z"/><path d="m428.18 75.821a6 6 0 0 0 -1.924-4.232 251.193 251.193 0 0 0 -303.3-28.523 6 6 0 0 0 -1.83 8.371l40.46 61.758a6 6 0 0 0 8.159 1.825 165 165 0 0 1 197.221 18.546 6 6 0 0 0 8.353-.281l51.181-53.129a6 6 0 0 0 1.68-4.335zm-57.526 45.013a177.009 177.009 0 0 0 -202.168-19.009l-33.922-51.779a239.257 239.257 0 0 1 279 26.251z"/></g></svg>